<?xml version="1.0" encoding="UTF-8" standalone="no"?>
<svg
   fill="none"
   viewBox="0 0 20 20"
   stroke-width="2"
   stroke="currentColor"
   aria-hidden="true"
   version="1.1"
   id="svg4"
   sodipodi:docname="chip.svg"
   inkscape:version="1.2 (dc2aedaf03, 2022-05-15)"
   width="15"
   height="15"
   xmlns:inkscape="http://www.inkscape.org/namespaces/inkscape"
   xmlns:sodipodi="http://sodipodi.sourceforge.net/DTD/sodipodi-0.dtd"
   xmlns="http://www.w3.org/2000/svg"
   xmlns:svg="http://www.w3.org/2000/svg">
  <defs
     id="defs8" />
  <sodipodi:namedview
     id="namedview6"
     pagecolor="#ffffff"
     bordercolor="#000000"
     borderopacity="0.25"
     inkscape:showpageshadow="2"
     inkscape:pageopacity="0.0"
     inkscape:pagecheckerboard="0"
     inkscape:deskcolor="#d1d1d1"
     showgrid="false"
     inkscape:zoom="15.846577"
     inkscape:cx="7.6041659"
     inkscape:cy="9.087136"
     inkscape:window-width="1346"
     inkscape:window-height="642"
     inkscape:window-x="8"
     inkscape:window-y="43"
     inkscape:window-maximized="1"
     inkscape:current-layer="svg4" />
  <path
     stroke-linecap="round"
     stroke-linejoin="round"
     d="M 7.2433148,1.5114711 V 3.3830905 M 12.858173,1.5114711 V 3.3830905 M 7.2433148,16.484426 v 1.871619 m 5.6148582,-1.871619 v 1.871619 M 3.500076,7.1263293 H 1.6284566 M 3.500076,12.741187 H 1.6284566 M 18.473031,7.1263293 h -1.871619 m 1.871619,5.6148577 H 16.601412 M 5.3716954,16.484426 h 9.3580966 a 1.8716194,1.8716194 0 0 0 1.87162,-1.87162 V 5.2547099 A 1.8716194,1.8716194 0 0 0 14.729792,3.3830905 H 5.3716954 A 1.8716194,1.8716194 0 0 0 3.500076,5.2547099 v 9.3580961 a 1.8716194,1.8716194 0 0 0 1.8716194,1.87162 z M 7.2433148,7.1263293 H 12.858173 V 12.741187 H 7.2433148 Z"
     id="path2"
     style="stroke:#f37e58;stroke-width:1.87162;stroke-opacity:1" />
</svg>
