/* XPM */
static char * title_1_active_xpm[] = {
"13 13 5 1",
" 	c #2C2C2C",
".	c #2E2E2E",
"+	c #E0E0E0",
"@	c #DFDFDF",
"#	c #DEDEDE",
"             ",
"             ",
"             ",
"             ",
"             ",
"             ",
"             ",
"             ",
"             ",
"             ",
".............",
"+++++++++++++",
"@############"};
