<?xml version="1.0" encoding="UTF-8" standalone="no"?>
<svg
   width="16"
   height="16"
   viewBox="0 0 512 512"
   version="1.1"
   id="svg1937"
   sodipodi:docname="server.svg"
   inkscape:version="1.2 (dc2aedaf03, 2022-05-15)"
   xmlns:inkscape="http://www.inkscape.org/namespaces/inkscape"
   xmlns:sodipodi="http://sodipodi.sourceforge.net/DTD/sodipodi-0.dtd"
   xmlns="http://www.w3.org/2000/svg"
   xmlns:svg="http://www.w3.org/2000/svg">
  <defs
     id="defs1941" />
  <sodipodi:namedview
     id="namedview1939"
     pagecolor="#505050"
     bordercolor="#eeeeee"
     borderopacity="1"
     inkscape:showpageshadow="0"
     inkscape:pageopacity="0"
     inkscape:pagecheckerboard="0"
     inkscape:deskcolor="#505050"
     showgrid="false"
     inkscape:zoom="32.1875"
     inkscape:cx="5.576699"
     inkscape:cy="8.015534"
     inkscape:window-width="1346"
     inkscape:window-height="642"
     inkscape:window-x="8"
     inkscape:window-y="43"
     inkscape:window-maximized="1"
     inkscape:current-layer="svg1937" />
  <!--! Font Awesome Free 6.1.1 by @fontawesome - https://fontawesome.com License - https://fontawesome.com/license/free (Icons: CC BY 4.0, Fonts: SIL OFL 1.1, Code: MIT License) Copyright 2022 Fonticons, Inc. -->
  <path
     d="M480 288H32c-17.62 0-32 14.38-32 32v128c0 17.62 14.38 32 32 32h448c17.62 0 32-14.38 32-32v-128C512 302.4 497.6 288 480 288zM352 408c-13.25 0-24-10.75-24-24s10.75-24 24-24s24 10.75 24 24S365.3 408 352 408zM416 408c-13.25 0-24-10.75-24-24s10.75-24 24-24s24 10.75 24 24S429.3 408 416 408zM480 32H32C14.38 32 0 46.38 0 64v128c0 17.62 14.38 32 32 32h448c17.62 0 32-14.38 32-32V64C512 46.38 497.6 32 480 32zM352 152c-13.25 0-24-10.75-24-24S338.8 104 352 104S376 114.8 376 128S365.3 152 352 152zM416 152c-13.25 0-24-10.75-24-24S402.8 104 416 104S440 114.8 440 128S429.3 152 416 152z"
     id="path1935"
     style="stroke:none;stroke-opacity:1;fill:#98c379;fill-opacity:1" />
</svg>
