<?xml version="1.0" encoding="UTF-8" standalone="no"?>
<svg
   aria-label="Arch Linux"
   role="img"
   viewBox="0 0 512 512"
   version="1.1"
   id="svg6"
   sodipodi:docname="Arch Linux.svg"
   inkscape:version="1.2 (dc2aedaf03, 2022-05-15)"
   xmlns:inkscape="http://www.inkscape.org/namespaces/inkscape"
   xmlns:sodipodi="http://sodipodi.sourceforge.net/DTD/sodipodi-0.dtd"
   xmlns="http://www.w3.org/2000/svg"
   xmlns:svg="http://www.w3.org/2000/svg">
  <defs
     id="defs10" />
  <sodipodi:namedview
     id="namedview8"
     pagecolor="#ffffff"
     bordercolor="#000000"
     borderopacity="0.25"
     inkscape:showpageshadow="2"
     inkscape:pageopacity="0.0"
     inkscape:pagecheckerboard="0"
     inkscape:deskcolor="#d1d1d1"
     showgrid="false"
     inkscape:zoom="0.47118962"
     inkscape:cx="282.26428"
     inkscape:cy="288.63115"
     inkscape:window-width="1342"
     inkscape:window-height="682"
     inkscape:window-x="10"
     inkscape:window-y="46"
     inkscape:window-maximized="1"
     inkscape:current-layer="svg6" />
  <path
     d="M 257.74606,3.5628372 C 235.86633,58.262151 221.8008,92.644586 196.79538,145.78106 c 15.62839,17.19124 34.38245,35.9453 64.07637,56.26219 -32.8196,-12.5027 -54.69934,-26.56825 -70.3277,-40.6338 C 157.72443,228.61149 107.71363,322.38177 7.692,505.2338 c 78.1419,-46.88513 140.6554,-75.01622 198.48041,-85.95608 -3.12566,-10.93985 -4.6885,-21.87974 -4.6885,-34.38245 v -1.56283 c 1.56284,-51.57364 28.1311,-90.64459 59.38784,-87.51891 31.25675,1.56283 56.26217,45.32229 54.69933,96.89595 l -3.12568,26.56824 c 56.26217,10.93986 117.21286,40.63378 195.35469,84.39324 l -42.19656,-78.14189 c -20.31695,-15.62837 -42.19668,-35.94527 -85.95611,-59.38784 29.69387,7.81418 51.57371,17.19121 68.76491,26.56825 C 314.00825,144.21823 303.06837,111.39865 257.74606,2 Z"
     fill="#1793d1"
     id="path4"
     style="stroke-width:1.56283" />
</svg>
