<?xml version="1.0" encoding="UTF-8" standalone="no"?>
<svg
   viewBox="0 0 512 512"
   version="1.1"
   id="svg4"
   sodipodi:docname="Close.svg"
   inkscape:version="1.2.1 (9c6d41e410, 2022-07-14, custom)"
   xml:space="preserve"
   xmlns:inkscape="http://www.inkscape.org/namespaces/inkscape"
   xmlns:sodipodi="http://sodipodi.sourceforge.net/DTD/sodipodi-0.dtd"
   xmlns="http://www.w3.org/2000/svg"
   xmlns:svg="http://www.w3.org/2000/svg"><defs
     id="defs8" /><sodipodi:namedview
     id="namedview6"
     pagecolor="#505050"
     bordercolor="#eeeeee"
     borderopacity="1"
     inkscape:showpageshadow="0"
     inkscape:pageopacity="0"
     inkscape:pagecheckerboard="0"
     inkscape:deskcolor="#505050"
     showgrid="false"
     inkscape:zoom="0.43756194"
     inkscape:cx="-86.844848"
     inkscape:cy="293.67271"
     inkscape:window-width="1344"
     inkscape:window-height="633"
     inkscape:window-x="6"
     inkscape:window-y="42"
     inkscape:window-maximized="1"
     inkscape:current-layer="svg4" /><!--! Font Awesome Free 6.1.0 by @fontawesome - https://fontawesome.com License - https://fontawesome.com/license/free (Icons: CC BY 4.0, Fonts: SIL OFL 1.1, Code: MIT License) Copyright 2022 Fonticons, Inc. --><rect
     style="fill:#1a1b26;fill-opacity:1;stroke:none;stroke-width:70.9298;stroke-linecap:round;stroke-linejoin:round;stroke-dasharray:none;stroke-opacity:1;paint-order:fill markers stroke"
     id="rect1106"
     width="512"
     height="512"
     x="0"
     y="0"
     ry="0" /><path
     d="m 385.33127,348.46422 c 10.78456,10.78456 10.78456,28.25556 0,39.04012 -5.34914,5.39227 -12.42382,8.06685 -19.49848,8.06685 -7.07468,0 -14.1321,-2.69613 -19.51576,-8.08842 L 255.39885,296.61205 164.4893,387.4612 c -5.39228,5.43541 -12.45832,8.10999 -19.52437,8.10999 -7.06604,0 -14.12347,-2.67458 -19.52005,-8.10999 -10.78457,-10.78456 -10.78457,-28.25556 0,-39.04011 l 90.93543,-90.93544 -90.93543,-90.8923 c -10.78457,-10.78456 -10.78457,-28.25555 0,-39.04011 10.78455,-10.78457 28.25555,-10.78457 39.04011,0 l 90.91386,90.97857 90.93544,-90.93543 c 10.78457,-10.78457 28.25555,-10.78457 39.04012,0 10.78455,10.78457 10.78455,28.25555 0,39.04011 l -90.93543,90.93544 z"
     id="path1326"
     style="fill:none;stroke:#d86871;stroke-width:55.3895;stroke-linecap:round;stroke-linejoin:miter;stroke-miterlimit:5.4;stroke-dasharray:none;stroke-opacity:1;paint-order:normal" /></svg>
