<?xml version="1.0" encoding="UTF-8" standalone="no"?>
<svg
   viewBox="0 0 512 512"
   version="1.1"
   id="svg4"
   sodipodi:docname="power-off.svg"
   inkscape:version="1.2.1 (9c6d41e410, 2022-07-14, custom)"
   xmlns:inkscape="http://www.inkscape.org/namespaces/inkscape"
   xmlns:sodipodi="http://sodipodi.sourceforge.net/DTD/sodipodi-0.dtd"
   xmlns="http://www.w3.org/2000/svg"
   xmlns:svg="http://www.w3.org/2000/svg">
  <defs
     id="defs8" />
  <sodipodi:namedview
     id="namedview6"
     pagecolor="#505050"
     bordercolor="#eeeeee"
     borderopacity="1"
     inkscape:showpageshadow="0"
     inkscape:pageopacity="0"
     inkscape:pagecheckerboard="0"
     inkscape:deskcolor="#505050"
     showgrid="false"
     inkscape:zoom="0.43756194"
     inkscape:cx="-108.55606"
     inkscape:cy="324.52548"
     inkscape:window-width="1362"
     inkscape:window-height="644"
     inkscape:window-x="0"
     inkscape:window-y="34"
     inkscape:window-maximized="1"
     inkscape:current-layer="svg4" />
  <!--! Font Awesome Free 6.1.0 by @fontawesome - https://fontawesome.com License - https://fontawesome.com/license/free (Icons: CC BY 4.0, Fonts: SIL OFL 1.1, Code: MIT License) Copyright 2022 Fonticons, Inc. -->
  <path
     d="m 285.27162,269.33249 c 0,15.14398 -12.23498,27.37895 -27.37896,27.37895 -15.14399,0 -27.37896,-12.23497 -27.37896,-27.37895 V 77.679801 c 0,-15.118317 12.23497,-27.378956 27.37896,-27.378956 15.14398,0 27.37896,12.260639 27.37896,27.378956 z m -177.96322,0 c 0,83.16358 67.42068,150.58426 150.58426,150.58426 83.16358,0 150.58426,-67.42068 150.58426,-150.58426 0,-46.54423 -21.13313,-88.21158 -54.33012,-115.84721 -11.63605,-9.66819 -13.26168,-26.92549 -3.59349,-38.55299 9.6682,-11.6275 26.95116,-13.21034 38.58722,-3.54215 45.17528,37.64606 74.0943,94.45739 74.0943,157.17231 0,114.13603 -91.97618,206.11221 -205.34217,206.11221 -113.36599,0 -205.342171,-91.97618 -205.342171,-206.11221 0,-62.71492 28.876243,-119.52625 74.094301,-157.17231 11.63606,-9.66819 28.91902,-8.08535 38.58722,3.54215 8.89816,11.6275 8.04256,28.8848 -3.59349,38.55299 -33.19699,27.63563 -54.33012,69.30298 -54.33012,115.84721 z"
     id="path2"
     style="fill:#d86871;fill-opacity:1;stroke:none;stroke-width:0.855592;stroke-opacity:1" />
</svg>
