<?xml version="1.0" encoding="UTF-8" standalone="no"?>
<svg
   viewBox="0 0 512 512"
   version="1.1"
   id="svg4"
   sodipodi:docname="Prelight.svg"
   inkscape:version="1.2.1 (9c6d41e410, 2022-07-14, custom)"
   xml:space="preserve"
   inkscape:export-filename="../../.themes/Habiboow/xfwm4/hide-prelight.png"
   inkscape:export-xdpi="6.375"
   inkscape:export-ydpi="6.375"
   xmlns:inkscape="http://www.inkscape.org/namespaces/inkscape"
   xmlns:sodipodi="http://sodipodi.sourceforge.net/DTD/sodipodi-0.dtd"
   xmlns="http://www.w3.org/2000/svg"
   xmlns:svg="http://www.w3.org/2000/svg"><defs
     id="defs8" /><sodipodi:namedview
     id="namedview6"
     pagecolor="#505050"
     bordercolor="#eeeeee"
     borderopacity="1"
     inkscape:showpageshadow="0"
     inkscape:pageopacity="0"
     inkscape:pagecheckerboard="0"
     inkscape:deskcolor="#505050"
     showgrid="false"
     inkscape:zoom="0.70910507"
     inkscape:cx="222.81606"
     inkscape:cy="305.31442"
     inkscape:window-width="1354"
     inkscape:window-height="633"
     inkscape:window-x="6"
     inkscape:window-y="42"
     inkscape:window-maximized="1"
     inkscape:current-layer="svg4" /><!--! Font Awesome Free 6.1.0 by @fontawesome - https://fontawesome.com License - https://fontawesome.com/license/free (Icons: CC BY 4.0, Fonts: SIL OFL 1.1, Code: MIT License) Copyright 2022 Fonticons, Inc. --><rect
     style="fill:#1a1b26;fill-opacity:1;stroke:none;stroke-width:70.9298;stroke-linecap:round;stroke-linejoin:round;stroke-dasharray:none;stroke-opacity:1;paint-order:fill markers stroke"
     id="rect1106"
     width="512"
     height="512"
     x="0"
     y="0"
     ry="0" /><g
     id="g1052"
     transform="matrix(0.51500684,0,0,0.51500684,122.11181,112.69962)"><path
       d="m 408.96602,252.46663 c 16.13372,-13.07199 33.7068,-4.07156 40.95866,4.87885 13.46776,16.62218 3.25146,102.34987 -66.81457,159.11931 C 284.62689,496.25862 156.94723,459.53877 95.137576,383.252 34.724748,308.68921 22.663846,176.50701 122.8926,95.298889 194.345,37.406172 279.54071,47.054001 292.40899,62.936305 c 7.14129,8.813924 11.78666,28.538606 -4.36358,41.623975 -22.49813,18.22862 -65.63774,-13.749981 -127.91705,36.71045 -70.38927,57.03135 -62.396294,151.20828 -19.0306,204.73115 43.08634,53.17806 133.65016,82.09588 204.75059,24.48835 63.14267,-51.17184 40.49024,-99.69023 63.11767,-118.0236 z"
       id="path974"
       style="fill:#ad8ee6;fill-opacity:1;stroke:#ad8ee6;stroke-width:25.979;stroke-dasharray:none;stroke-opacity:1" /><path
       style="fill:#ad8ee6;fill-opacity:1;stroke:#ad8ee6;stroke-width:83.426;stroke-linecap:round;stroke-linejoin:round;stroke-dasharray:none;stroke-opacity:1;paint-order:fill markers stroke"
       d="M 278.31948,227.73811 434.67088,106.09887"
       id="path1046-9" /></g></svg>
