<?xml version="1.0" encoding="UTF-8" standalone="no"?>
<!-- Created with Inkscape (http://www.inkscape.org/) -->

<svg
   width="390"
   height="320"
   viewBox="0 0 103.1875 84.666666"
   version="1.1"
   id="svg5"
   xml:space="preserve"
   inkscape:version="1.2.1 (9c6d41e410, 2022-07-14, custom)"
   sodipodi:docname="Window.svg"
   xmlns:inkscape="http://www.inkscape.org/namespaces/inkscape"
   xmlns:sodipodi="http://sodipodi.sourceforge.net/DTD/sodipodi-0.dtd"
   xmlns="http://www.w3.org/2000/svg"
   xmlns:svg="http://www.w3.org/2000/svg"><sodipodi:namedview
     id="namedview7"
     pagecolor="#ffffff"
     bordercolor="#999999"
     borderopacity="1"
     inkscape:showpageshadow="0"
     inkscape:pageopacity="0"
     inkscape:pagecheckerboard="0"
     inkscape:deskcolor="#d1d1d1"
     inkscape:document-units="px"
     showgrid="false"
     inkscape:zoom="0.90942994"
     inkscape:cx="196.2768"
     inkscape:cy="133.60018"
     inkscape:window-width="1344"
     inkscape:window-height="633"
     inkscape:window-x="6"
     inkscape:window-y="42"
     inkscape:window-maximized="1"
     inkscape:current-layer="layer1" /><defs
     id="defs2"><inkscape:path-effect
       effect="fillet_chamfer"
       id="path-effect952"
       is_visible="true"
       lpeversion="1"
       nodesatellites_param="F,0,0,1,0,0,0,1 @ F,0,0,1,0,0,0,1 @ F,0,0,1,0,0,0,1 @ F,0,0,1,0,0,0,1"
       unit="px"
       method="auto"
       mode="F"
       radius="0"
       chamfer_steps="1"
       flexible="false"
       use_knot_distance="true"
       apply_no_radius="true"
       apply_with_radius="true"
       only_selected="false"
       hide_knots="false" /><inkscape:path-effect
       effect="fillet_chamfer"
       id="path-effect950"
       is_visible="true"
       lpeversion="1"
       nodesatellites_param="F,0,0,1,0,2.3708694,0,1 @ F,0,0,1,0,2.694191,0,1 @ F,0,0,1,0,0,0,1 @ F,0,0,1,0,0,0,1"
       unit="px"
       method="auto"
       mode="F"
       radius="0"
       chamfer_steps="1"
       flexible="false"
       use_knot_distance="true"
       apply_no_radius="true"
       apply_with_radius="true"
       only_selected="false"
       hide_knots="false" /></defs><g
     inkscape:label="Layer 1"
     inkscape:groupmode="layer"
     id="layer1"><g
       id="g1215"
       transform="translate(-95.408469,-54.705751)"><path
         style="fill:#1a1b26;fill-opacity:1;stroke:none;stroke-width:0.264583;stroke-linecap:round;stroke-linejoin:round;stroke-miterlimit:5.4;stroke-dasharray:none;stroke-opacity:1"
         id="rect234"
         width="101.86459"
         height="82.944199"
         x="96.315712"
         y="55.164566"
         inkscape:path-effect="#path-effect950"
         d="m 98.686581,55.164566 96.799529,0 a 2.694191,2.694191 45 0 1 2.6942,2.694191 V 138.10876 H 96.315712 V 57.535435 a 2.3708694,2.3708694 135 0 1 2.370869,-2.370869 z"
         sodipodi:type="rect" /><rect
         style="fill:#61afef;fill-opacity:1;stroke:none;stroke-width:0.150852;stroke-linecap:round;stroke-linejoin:round;stroke-miterlimit:5.4;stroke-dasharray:none;stroke-opacity:1"
         id="rect1053"
         width="101.86459"
         height="0.26458332"
         x="96.197975"
         y="62.73896" /><g
         id="g1068"
         transform="matrix(0.00834881,0,0,0.00834881,189.62011,56.925891)"><rect
           style="fill:#1a1b26;fill-opacity:1;stroke:none;stroke-width:70.9298;stroke-linecap:round;stroke-linejoin:round;stroke-dasharray:none;stroke-opacity:1;paint-order:fill markers stroke"
           id="rect1106"
           width="512"
           height="512"
           x="0"
           y="0"
           ry="0" /><path
           d="m 385.33127,348.46422 c 10.78456,10.78456 10.78456,28.25556 0,39.04012 -5.34914,5.39227 -12.42382,8.06685 -19.49848,8.06685 -7.07468,0 -14.1321,-2.69613 -19.51576,-8.08842 L 255.39885,296.61205 164.4893,387.4612 c -5.39228,5.43541 -12.45832,8.10999 -19.52437,8.10999 -7.06604,0 -14.12347,-2.67458 -19.52005,-8.10999 -10.78457,-10.78456 -10.78457,-28.25556 0,-39.04011 l 90.93543,-90.93544 -90.93543,-90.8923 c -10.78457,-10.78456 -10.78457,-28.25555 0,-39.04011 10.78455,-10.78457 28.25555,-10.78457 39.04011,0 l 90.91386,90.97857 90.93544,-90.93543 c 10.78457,-10.78457 28.25555,-10.78457 39.04012,0 10.78455,10.78457 10.78455,28.25555 0,39.04011 l -90.93543,90.93544 z"
           id="path1326"
           style="fill:none;stroke:#d86871;stroke-width:55.3895;stroke-linecap:round;stroke-linejoin:miter;stroke-miterlimit:5.4;stroke-dasharray:none;stroke-opacity:1;paint-order:normal" /></g><g
         id="g1122"
         transform="matrix(0.04298405,0,0,0.04298405,178.28669,54.004172)"><rect
           style="fill:#1a1b26;fill-opacity:1;stroke:none;stroke-width:13.2569;stroke-linecap:round;stroke-linejoin:round;stroke-dasharray:none;stroke-opacity:1;paint-order:fill markers stroke"
           id="rect1106-3"
           width="95.693382"
           height="95.693382"
           x="133.57043"
           y="69.643173"
           ry="0" /><g
           id="g1113"><path
             style="fill:#ad8ee6;fill-opacity:1;stroke:#2ad6c6;stroke-width:12.2517;stroke-linecap:round;stroke-linejoin:round;stroke-dasharray:none;stroke-opacity:1;paint-order:fill markers stroke"
             d="m 201.47765,98.410934 8.71039,-8.087971"
             id="path1046" /><path
             style="fill:#ad8ee6;fill-opacity:1;stroke:#2ad6c6;stroke-width:12.2517;stroke-linecap:round;stroke-linejoin:round;stroke-dasharray:none;stroke-opacity:1;paint-order:fill markers stroke"
             d="m 162.57682,98.13033 -8.7104,-8.087972"
             id="path1046-6" /><path
             style="fill:#ad8ee6;fill-opacity:1;stroke:#2ad6c6;stroke-width:12.2517;stroke-linecap:round;stroke-linejoin:round;stroke-dasharray:none;stroke-opacity:1;paint-order:fill markers stroke"
             d="m 208.3642,145.80078 -8.71039,-8.08798"
             id="path1046-6-2" /><path
             style="fill:#ad8ee6;fill-opacity:1;stroke:#2ad6c6;stroke-width:12.2517;stroke-linecap:round;stroke-linejoin:round;stroke-dasharray:none;stroke-opacity:1;paint-order:fill markers stroke"
             d="m 152.5067,145.09619 8.71039,-8.08797"
             id="path1046-5" /><circle
             style="fill:none;fill-opacity:1;stroke:#2ad6c6;stroke-width:12.0907;stroke-linecap:round;stroke-linejoin:round;stroke-dasharray:none;stroke-opacity:1;paint-order:fill markers stroke"
             id="path1209"
             cx="180.89339"
             cy="118.17265"
             r="26.694969" /></g></g><g
         id="g1135"
         transform="matrix(0.00771804,0,0,0.00767443,178.48362,57.170793)"><rect
           style="fill:#1a1b26;fill-opacity:1;stroke:none;stroke-width:70.9298;stroke-linecap:round;stroke-linejoin:round;stroke-dasharray:none;stroke-opacity:1;paint-order:fill markers stroke"
           id="rect1106-6"
           width="512"
           height="512"
           x="0"
           y="0"
           ry="0" /><g
           id="g1052"
           transform="matrix(0.82355831,0,0,0.82355831,44.980637,46.196762)"><path
             d="m 408.96602,252.46663 c 16.13372,-13.07199 33.7068,-4.07156 40.95866,4.87885 13.46776,16.62218 3.25146,102.34987 -66.81457,159.11931 C 284.62689,496.25862 156.94723,459.53877 95.137576,383.252 34.724748,308.68921 22.663846,176.50701 122.8926,95.298889 194.345,37.406172 279.54071,47.054001 292.40899,62.936305 c 7.14129,8.813924 11.78666,28.538606 -4.36358,41.623975 -22.49813,18.22862 -65.63774,-13.749981 -127.91705,36.71045 -70.38927,57.03135 -62.396294,151.20828 -19.0306,204.73115 43.08634,53.17806 133.65016,82.09588 204.75059,24.48835 63.14267,-51.17184 40.49024,-99.69023 63.11767,-118.0236 z"
             id="path974"
             style="fill:#ad8ee6;fill-opacity:1;stroke:#ad8ee6;stroke-width:25.979;stroke-dasharray:none;stroke-opacity:1" /><path
             style="fill:#ad8ee6;fill-opacity:1;stroke:#ad8ee6;stroke-width:83.426;stroke-linecap:round;stroke-linejoin:round;stroke-dasharray:none;stroke-opacity:1;paint-order:fill markers stroke"
             d="M 278.31948,227.73811 434.67088,106.09887"
             id="path1046-7" /></g></g><g
         id="g1148"
         transform="matrix(0.00848009,0,0,0.00848009,172.78532,56.893369)"><rect
           style="fill:#1a1b26;fill-opacity:1;stroke:none;stroke-width:70.9298;stroke-linecap:round;stroke-linejoin:round;stroke-dasharray:none;stroke-opacity:1;paint-order:fill markers stroke"
           id="rect1106-5"
           width="512"
           height="512"
           x="0"
           y="0"
           ry="0" /><g
           id="g1426"
           transform="translate(-4)"><circle
             style="fill:none;fill-opacity:1;stroke:#9ece6a;stroke-width:67.273;stroke-linecap:round;stroke-linejoin:round;stroke-dasharray:none;stroke-opacity:1;paint-order:fill markers stroke"
             id="path1209-3"
             cx="260.14972"
             cy="256.11047"
             r="148.53163" /><circle
             style="fill:#9ece6a;fill-opacity:1;stroke:none;stroke-width:134.232;stroke-linecap:round;stroke-linejoin:miter;stroke-miterlimit:5.4;stroke-dasharray:none;stroke-opacity:1;paint-order:normal"
             id="path1422"
             cx="258.892"
             cy="255.52426"
             r="50" /></g></g><g
         id="g1161"
         transform="matrix(0.00857308,0,0,0.00857308,167.19203,56.924559)"><rect
           style="fill:#1a1b26;fill-opacity:1;stroke:none;stroke-width:70.9298;stroke-linecap:round;stroke-linejoin:round;stroke-dasharray:none;stroke-opacity:1;paint-order:fill markers stroke"
           id="rect1106-5-5"
           width="512"
           height="512"
           x="0"
           y="0"
           ry="0" /><g
           id="g1674"><path
             d="m 164.60766,336.93775 c -0.057,17.10086 -25.75802,22.99806 -34.38215,19.04491 C 113.94935,348.52194 83.370235,325.48925 83.617812,251.22306 83.96579,146.83621 173.86667,84.472641 254.72649,84.742184 c 79.0325,0.263462 169.66385,61.378636 169.30972,167.615676 -0.25247,75.73566 -26.33998,105.53691 -43.17436,105.4808 -9.34228,-0.0311 -31.24263,-8.15419 -31.18556,-25.27257 0.0795,-23.8468 25.41841,-14.36558 25.63845,-80.37826 0.24871,-74.60881 -64.01172,-118.53502 -120.74305,-118.72416 -56.36585,-0.18789 -121.96592,42.55166 -122.21715,117.91424 -0.21552,66.93399 32.33307,61.576 32.25312,85.55984 z"
             id="path974-6"
             style="fill:#61afef;fill-opacity:1;stroke:#61afef;stroke-width:21.3952;stroke-dasharray:none;stroke-opacity:1"
             sodipodi:nodetypes="ssssssssscs" /><path
             style="fill:none;fill-opacity:1;stroke:#61afef;stroke-width:50.1;stroke-linecap:round;stroke-linejoin:round;stroke-miterlimit:5.4;stroke-dasharray:none;stroke-opacity:1;paint-order:normal"
             d="m 195.01135,419.67099 59.46557,-143.21005 56.3652,142.40095"
             id="path1572" /></g></g><g
         id="g1178"
         transform="matrix(0.0092155,0,0,0.0092155,100.45954,56.742054)"><rect
           style="fill:#1a1b26;fill-opacity:1;stroke:none;stroke-width:70.9298;stroke-linecap:round;stroke-linejoin:round;stroke-dasharray:none;stroke-opacity:1;paint-order:fill markers stroke"
           id="rect1106-5-2"
           width="512"
           height="512"
           x="0"
           y="0"
           ry="0" /><g
           style="fill:none"
           id="g1741"
           transform="matrix(7.5459347,0,0,7.5459347,71.220339,70.517836)"><rect
             x="4"
             y="4"
             width="18.2609"
             height="18.2609"
             rx="3"
             fill="#d86871"
             id="rect1723" /><rect
             x="27.7391"
             y="4"
             width="18.2609"
             height="18.2609"
             rx="3"
             fill="#e5c07b"
             id="rect1725" /><rect
             x="27.7391"
             y="27.7391"
             width="18.2609"
             height="18.2609"
             rx="3"
             fill="#61afef"
             id="rect1727" /><rect
             x="4"
             y="27.7391"
             width="18.2609"
             height="18.2609"
             rx="3"
             fill="#98c379"
             id="rect1729" /></g></g></g></g></svg>
