<svg width="50" height="50" viewBox="0 0 50 50" fill="none" xmlns="http://www.w3.org/2000/svg">
<circle cx="25" cy="25" r="25" fill="#61AFEF"/>
<g clip-path="url(#clip0_1_14)">
<path d="M19.2308 22.6923C19.2308 20.4687 20.021 18.5667 21.6016 16.9862C23.1821 15.4056 25.0841 14.6154 27.3077 14.6154C29.5313 14.6154 31.4333 15.4056 33.0138 16.9862C34.5944 18.5667 35.3846 20.4687 35.3846 22.6923C35.3846 24.9159 34.5944 26.8179 33.0138 28.3984C31.4333 29.979 29.5313 30.7692 27.3077 30.7692C25.0841 30.7692 23.1821 29.979 21.6016 28.3984C20.021 26.8179 19.2308 24.9159 19.2308 22.6923ZM10 37.6923C10 38.3173 10.2284 38.8582 10.6851 39.3149C11.1418 39.7716 11.6827 40 12.3077 40C12.9567 40 13.4976 39.7716 13.9303 39.3149L20.1142 33.149C22.2656 34.6394 24.6635 35.3846 27.3077 35.3846C29.0264 35.3846 30.6701 35.0511 32.2386 34.384C33.8071 33.7169 35.1593 32.8155 36.2951 31.6797C37.4309 30.5439 38.3323 29.1917 38.9994 27.6232C39.6665 26.0547 40 24.4111 40 22.6923C40 20.9736 39.6665 19.3299 38.9994 17.7614C38.3323 16.1929 37.4309 14.8407 36.2951 13.7049C35.1593 12.5691 33.8071 11.6677 32.2386 11.0006C30.6701 10.3335 29.0264 10 27.3077 10C25.5889 10 23.9453 10.3335 22.3768 11.0006C20.8083 11.6677 19.4561 12.5691 18.3203 13.7049C17.1845 14.8407 16.2831 16.1929 15.616 17.7614C14.9489 19.3299 14.6154 20.9736 14.6154 22.6923C14.6154 25.3365 15.3606 27.7344 16.851 29.8858L10.6671 36.0697C10.2224 36.5144 10 37.0553 10 37.6923Z" fill="#1A1B26"/>
</g>
<defs>
<clipPath id="clip0_1_14">
<rect width="30" height="30" fill="white" transform="matrix(-1 0 0 1 40 10)"/>
</clipPath>
</defs>
</svg>
