<?xml version="1.0" encoding="UTF-8" standalone="no"?>
<svg
   viewBox="0 0 512 512"
   version="1.1"
   id="svg4"
   sodipodi:docname="Shade.svg"
   inkscape:version="1.2.1 (9c6d41e410, 2022-07-14, custom)"
   xml:space="preserve"
   xmlns:inkscape="http://www.inkscape.org/namespaces/inkscape"
   xmlns:sodipodi="http://sodipodi.sourceforge.net/DTD/sodipodi-0.dtd"
   xmlns="http://www.w3.org/2000/svg"
   xmlns:svg="http://www.w3.org/2000/svg"><defs
     id="defs8" /><sodipodi:namedview
     id="namedview6"
     pagecolor="#505050"
     bordercolor="#eeeeee"
     borderopacity="1"
     inkscape:showpageshadow="0"
     inkscape:pageopacity="0"
     inkscape:pagecheckerboard="0"
     inkscape:deskcolor="#505050"
     showgrid="false"
     inkscape:zoom="0.4665165"
     inkscape:cx="107.17735"
     inkscape:cy="271.15869"
     inkscape:window-width="1344"
     inkscape:window-height="633"
     inkscape:window-x="6"
     inkscape:window-y="42"
     inkscape:window-maximized="1"
     inkscape:current-layer="svg4" /><!--! Font Awesome Free 6.1.0 by @fontawesome - https://fontawesome.com License - https://fontawesome.com/license/free (Icons: CC BY 4.0, Fonts: SIL OFL 1.1, Code: MIT License) Copyright 2022 Fonticons, Inc. --><rect
     style="fill:#1a1b26;fill-opacity:1;stroke:none;stroke-width:70.9298;stroke-linecap:round;stroke-linejoin:round;stroke-dasharray:none;stroke-opacity:1;paint-order:fill markers stroke"
     id="rect1106-5"
     width="512"
     height="512"
     x="0"
     y="0"
     ry="0" /><g
     id="g1674"><path
       d="m 164.60766,336.93775 c -0.057,17.10086 -25.75802,22.99806 -34.38215,19.04491 C 113.94935,348.52194 83.370235,325.48925 83.617812,251.22306 83.96579,146.83621 173.86667,84.472641 254.72649,84.742184 c 79.0325,0.263462 169.66385,61.378636 169.30972,167.615676 -0.25247,75.73566 -26.33998,105.53691 -43.17436,105.4808 -9.34228,-0.0311 -31.24263,-8.15419 -31.18556,-25.27257 0.0795,-23.8468 25.41841,-14.36558 25.63845,-80.37826 0.24871,-74.60881 -64.01172,-118.53502 -120.74305,-118.72416 -56.36585,-0.18789 -121.96592,42.55166 -122.21715,117.91424 -0.21552,66.93399 32.33307,61.576 32.25312,85.55984 z"
       id="path974"
       style="fill:#61afef;fill-opacity:1;stroke:#61afef;stroke-width:21.3952;stroke-dasharray:none;stroke-opacity:1"
       sodipodi:nodetypes="ssssssssscs" /><path
       style="fill:none;fill-opacity:1;stroke:#61afef;stroke-width:50.1;stroke-linecap:round;stroke-linejoin:round;stroke-miterlimit:5.4;stroke-dasharray:none;stroke-opacity:1;paint-order:normal"
       d="m 195.01135,419.67099 59.46557,-143.21005 56.3652,142.40095"
       id="path1572" /></g></svg>
