/* XPM */
static char * bottom_inactive_xpm[] = {
"13 13 3 1",
" 	c #E0E0E0",
".	c #DEDEDE",
"+	c #2C2C2C",
"             ",
".............",
"+++++++++++++",
"+++++++++++++",
"+++++++++++++",
"+++++++++++++",
"+++++++++++++",
"+++++++++++++",
"+++++++++++++",
"+++++++++++++",
"+++++++++++++",
"+++++++++++++",
"+++++++++++++"};
