/* XPM */
static char * bottom_left_inactive_xpm[] = {
"13 13 5 1",
" 	c None",
".	c #2C2C2C",
"+	c #E0E0E0",
"@	c #DEDEDE",
"#	c #2D2D2D",
"...........++",
"...........@@",
".............",
".............",
".............",
".............",
".............",
".............",
".............",
"#............",
" ............",
"  ...........",
"   .........."};
