/* XPM */
static char * left_inactive_xpm[] = {
"13 13 4 1",
" 	c #2C2C2C",
".	c #E0E0E0",
"+	c #DEDEDE",
"@	c #DFDFDF",
"           ..",
"           ..",
"           ..",
"           ..",
"           ..",
"           ..",
"           ..",
"           ..",
"           ..",
"           ..",
"           ..",
"           ..",
"           +@"};
