/* XPM */
static char * right_inactive_xpm[] = {
"13 13 5 1",
" 	c #E0E0E0",
".	c #2D2D2D",
"+	c #2C2C2C",
"@	c #DFDFDF",
"#	c #DEDEDE",
"  .++++++++++",
"  .++++++++++",
"  .++++++++++",
"  .++++++++++",
"  .++++++++++",
"  .++++++++++",
"  .++++++++++",
"  .++++++++++",
"  .++++++++++",
"  .++++++++++",
"  .++++++++++",
"  .++++++++++",
"@#+++++++++++"};
