/* XPM */
static char * top_left_active_xpm[] = {
"13 13 6 1",
" 	c None",
".	c #2D2D2D",
"+	c #2C2C2C",
"@	c #2E2E2E",
"#	c #E0E0E0",
"$	c #DEDEDE",
"   .+++++++++",
"  +++++++++++",
" ++++++++++++",
"+++++++++++++",
"+++++++++++++",
"+++++++++++++",
"+++++++++++++",
"+++++++++++++",
"+++++++++++++",
"+++++++++++++",
"+++++++++++@@",
"+++++++++++##",
"+++++++++++$$"};
