/* XPM */
static char * left_inactive_xpm[] = {
"13 13 4 1",
" 	c #2C2C2C",
".	c #9A76D6",
"+	c #9976D4",
"@	c #9975D4",
"           ..",
"           ..",
"           ..",
"           ..",
"           ..",
"           ..",
"           ..",
"           ..",
"           ..",
"           ..",
"           ..",
"           ..",
"           +@"};
