/* XPM */
static char * right_active_xpm[] = {
"13 13 5 1",
" 	c #9A76D6",
".	c #2D2C2D",
"+	c #2C2C2C",
"@	c #9976D4",
"#	c #9975D4",
"  .++++++++++",
"  .++++++++++",
"  .++++++++++",
"  .++++++++++",
"  .++++++++++",
"  .++++++++++",
"  .++++++++++",
"  .++++++++++",
"  .++++++++++",
"  .++++++++++",
"  .++++++++++",
"  .++++++++++",
"@#+++++++++++"};
