/* XPM */
static char * title_3_active_xpm[] = {
"13 13 6 1",
" 	c #2C2C2C",
".	c #2D2D2E",
"+	c #2D2C2E",
"@	c #9A76D6",
"#	c #9976D4",
"$	c #9975D4",
"             ",
"             ",
"             ",
"             ",
"             ",
"             ",
"             ",
"             ",
"             ",
"             ",
".++++++++++++",
"@@@@@@@@@@@@@",
"#$$$$$$$$$$$$"};
