/* XPM */
static char * bottom_right_active_xpm[] = {
"13 13 7 1",
" 	c None",
".	c #9A76D6",
"+	c #2D2C2D",
"@	c #2C2C2C",
"#	c #9875D3",
"$	c #9975D4",
"%	c #2B2B2B",
"..+@@@@@@@@@@",
"#$@@@@@@@@@@@",
"@@@@@@@@@@@@@",
"@@@@@@@@@@@@@",
"@@@@@@@@@@@@@",
"@@@@@@@@@@@@@",
"@@@@@@@@@@@@@",
"@@@@@@@@@@@@@",
"@@@@@@@@@@@@@",
"@@@@@@@@@@@@@",
"@@@@@@@@@@@@@",
"@@@@@@@@@@@@@",
"%@@@@@@@@@@@ "};
