/* XPM */
static char * top_left_inactive_xpm[] = {
"13 13 8 1",
" 	c None",
".	c #2C2C2C",
"+	c #2D2D2E",
"@	c #2D2C2E",
"#	c #9A76D6",
"$	c #2B2B2B",
"%	c #9875D3",
"&	c #9A75D5",
" ............",
".............",
".............",
".............",
".............",
".............",
".............",
".............",
".............",
".............",
"...........+@",
"...........##",
"$..........%&"};
