/* XPM */
static char * top_right_inactive_xpm[] = {
"13 13 8 1",
" 	c None",
".	c #2C2C2C",
"+	c #2D2D2E",
"@	c #2D2C2E",
"#	c #9A76D6",
"$	c #2D2C2D",
"%	c #9976D5",
"&	c #9975D4",
"............ ",
".............",
".............",
".............",
".............",
".............",
".............",
".............",
".............",
".............",
"+@...........",
"##$..........",
"%&..........."};
