/* XPM */
static char * top_right_inactive_xpm[] = {
"2 28 3 1",
" 	c None",
".	c #61AFEF",
"+	c #61B0F0",
". ",
".+",
"..",
"..",
"..",
"..",
"..",
"..",
"..",
"..",
"..",
"..",
"..",
"..",
"..",
"..",
"..",
"..",
"..",
"..",
"..",
"..",
"..",
"..",
"..",
"..",
"..",
".."};
