/* XPM */
static char * top_left_inactive_xpm[] = {
"2 28 4 1",
" 	c None",
".	c #62AFEF",
"+	c #61B0F0",
"@	c #61AFEF",
" .",
"+@",
"@@",
"@@",
"@@",
"@@",
"@@",
"@@",
"@@",
"@@",
"@@",
"@@",
"@@",
"@@",
"@@",
"@@",
"@@",
"@@",
"@@",
"@@",
"@@",
"@@",
"@@",
"@@",
"@@",
"@@",
"@@",
"@@"};
