/* XPM */
static char * bottom_left_active_xpm[] = {
"2 28 4 1",
" 	c None",
".	c #61AFEF",
"+	c #61AFF0",
"@	c #61B0F0",
"..",
"..",
"..",
"..",
"..",
"..",
"..",
"..",
"..",
"..",
"..",
"..",
"..",
"..",
"..",
"..",
"..",
"..",
"..",
"..",
"..",
"..",
"..",
"..",
"..",
"..",
"+.",
" @"};
