/* XPM */
static char * bottom_right_inactive_xpm[] = {
"2 28 4 1",
" 	c None",
".	c #61AFEF",
"+	c #61AFF0",
"@	c #61AFEE",
"..",
"..",
"..",
"..",
"..",
"..",
"..",
"..",
"..",
"..",
"..",
"..",
"..",
"..",
"..",
"..",
"..",
"..",
"..",
"..",
"..",
"..",
"..",
"..",
"..",
"..",
".+",
"@ "};
