/* XPM */
static char * close_active_xpm[] = {
"28 28 5 1",
" 	c #61AFFF",
".	c #1A1B26",
"+	c #2D232E",
"@	c #D86871",
"#	c #C6616A",
"                            ",
"                            ",
"............................",
"............................",
"............................",
"............................",
"............................",
"............................",
"............................",
".........++++..++++.........",
".........@@@@..@@@@.........",
".........@@@@..@@@@.........",
".........@@@@..@@@@.........",
".........####..####.........",
"............................",
".........++++..++++.........",
".........@@@@..@@@@.........",
".........@@@@..@@@@.........",
".........@@@@..@@@@.........",
".........####..####.........",
"............................",
"............................",
"............................",
"............................",
"............................",
"............................",
"............................",
"............................"};
