/* XPM */
static char * maximize_active_xpm[] = {
"28 28 5 1",
" 	c #61AFFF",
".	c #1A1B26",
"+	c #262C2E",
"@	c #98C379",
"#	c #8CB371",
"                            ",
"                            ",
"............................",
"............................",
"............................",
"............................",
"............................",
"............................",
"............................",
".........++++...............",
".........@@@@...............",
".........@@@@...............",
".........@@@@...............",
".........####...............",
"............................",
".........++++..++++.........",
".........@@@@..@@@@.........",
".........@@@@..@@@@.........",
".........@@@@..@@@@.........",
".........####..####.........",
"............................",
"............................",
"............................",
"............................",
"............................",
"............................",
"............................",
"............................"};
