/* XPM */
static char * title_3_active_xpm[] = {
"5 28 2 1",
" 	c #61AFEF",
".	c #1A1B26",
"     ",
"     ",
".....",
".....",
".....",
".....",
".....",
".....",
".....",
".....",
".....",
".....",
".....",
".....",
".....",
".....",
".....",
".....",
".....",
".....",
".....",
".....",
".....",
".....",
".....",
".....",
".....",
"....."};
